# xmcd CD database file
#
# Track frame offsets:
#	150
#	80985
#	138239
#
# Disc length: 2650 seconds
#
# Revision: 0
# Processed by: cddbd v1.5.2PL0 Copyright (c) Steve Scherf et al.
# Submitted via: CDex 1.70beta2
#
DISCID=230a5803
DTITLE=The Thing - Gluttony
DYEAR=1900
DGENRE=Jazz
TTITLE0=Gluttony
TTITLE1=Gluttony
TTITLE2=Gluttony
EXTD=
EXTT0=
EXTT1=
EXTT2=
PLAYORDER=
